<?xml version="1.0" encoding="UTF-8"?>
<svg version="1.1" xmlns="http://www.w3.org/2000/svg" width="400" height="400">
<path d="M0 0 C0.82132919 -0.00701431 1.64265839 -0.01402863 2.48887634 -0.02125549 C5.12154698 -0.03864922 7.75399278 -0.04510674 10.38671875 -0.046875 C11.73521912 -0.04788712 11.73521912 -0.04788712 13.11096191 -0.04891968 C26.00506707 -0.03351815 38.45848084 0.30960713 51.07421875 3.203125 C51.87553223 3.37473145 52.6768457 3.54633789 53.50244141 3.72314453 C89.60825563 11.52434285 122.30685163 28.70126378 149.07421875 54.203125 C149.64430664 54.74598145 150.21439453 55.28883789 150.80175781 55.84814453 C184.99402041 88.62389599 210.05439366 136.45810191 211.23535156 184.5793457 C211.25483816 186.09580528 211.26862978 187.61234651 211.27734375 189.12890625 C211.28435806 189.95023544 211.29137238 190.77156464 211.29859924 191.61778259 C211.31599297 194.25045323 211.32245049 196.88289903 211.32421875 199.515625 C211.32489349 200.41462524 211.32556824 201.31362549 211.32626343 202.23986816 C211.3108619 215.13397332 210.96773662 227.58738709 208.07421875 240.203125 C207.9026123 241.00443848 207.73100586 241.80575195 207.55419922 242.63134766 C199.7530009 278.73716188 182.57607997 311.43575788 157.07421875 338.203125 C156.5313623 338.77321289 155.98850586 339.34330078 155.42919922 339.93066406 C122.65344776 374.12292666 74.81924184 399.18329991 26.69799805 400.36425781 C25.18153847 400.38374441 23.66499724 400.39753603 22.1484375 400.40625 C21.32710831 400.41326431 20.50577911 400.42027863 19.65956116 400.42750549 C17.02689052 400.44489922 14.39444472 400.45135674 11.76171875 400.453125 C10.86271851 400.45379974 9.96371826 400.45447449 9.03747559 400.45516968 C-3.85662957 400.43976815 -16.31004334 400.09664287 -28.92578125 397.203125 C-29.72709473 397.03151855 -30.5284082 396.85991211 -31.35400391 396.68310547 C-67.45981813 388.88190715 -100.15841413 371.70498622 -126.92578125 346.203125 C-127.49586914 345.66026855 -128.06595703 345.11741211 -128.65332031 344.55810547 C-162.84558291 311.78235401 -187.90595616 263.94814809 -189.08691406 215.8269043 C-189.10640066 214.31044472 -189.12019228 212.79390349 -189.12890625 211.27734375 C-189.13592056 210.45601456 -189.14293488 209.63468536 -189.15016174 208.78846741 C-189.16755547 206.15579677 -189.17401299 203.52335097 -189.17578125 200.890625 C-189.17645599 199.99162476 -189.17713074 199.09262451 -189.17782593 198.16638184 C-189.1624244 185.27227668 -188.81929912 172.81886291 -185.92578125 160.203125 C-185.7541748 159.40181152 -185.58256836 158.60049805 -185.40576172 157.77490234 C-177.6045634 121.66908812 -160.42764247 88.97049212 -134.92578125 62.203125 C-134.3829248 61.63303711 -133.84006836 61.06294922 -133.28076172 60.47558594 C-99.19460336 24.91628293 -49.91168693 0.28678647 0 0 Z " fill="#A2FE11" transform="translate(188.92578125,-0.203125)"/>
<path d="M0 0 C121.91369718 0 121.91369718 0 135.5 5.125 C136.31170654 5.42776855 137.12341309 5.73053711 137.9597168 6.04248047 C145.03888145 8.79990263 150.96831415 12.3495404 157 17 C157.58652344 17.41765625 158.17304688 17.8353125 158.77734375 18.265625 C172.27342245 28.4324323 180.38472071 46.91716677 183.49609375 63.04296875 C186.38176366 85.7033069 182.93385789 110.38414157 169 129 C163.48944267 135.97798693 157.64330626 141.45114971 150 146 C149.44489746 146.33273926 148.88979492 146.66547852 148.31787109 147.00830078 C129.97076698 157.75665834 109.46919246 159.20097187 88.57421875 159.09765625 C87.58474243 159.09664917 86.59526611 159.09564209 85.57580566 159.09460449 C81.94635833 159.08944725 78.31692776 159.07548728 74.6875 159.0625 C66.540625 159.041875 58.39375 159.02125 50 159 C50 190.02 50 221.04 50 253 C33.5 253 17 253 0 253 C0 169.51 0 86.02 0 0 Z " fill="#000000" transform="translate(120,91)"/>
<path d="M0 0 C11.2921875 -0.061875 11.2921875 -0.061875 22.8125 -0.125 C25.16608643 -0.14320801 27.51967285 -0.16141602 29.94458008 -0.18017578 C31.84456149 -0.18602601 33.74454545 -0.19112031 35.64453125 -0.1953125 C36.60307007 -0.20554443 37.56160889 -0.21577637 38.54919434 -0.22631836 C51.2977099 -0.22955197 64.54204604 1.79235948 74.17578125 10.80078125 C83.98519079 22.62668611 84.05901399 36.41311385 83 51 C82.17311825 55.04015281 80.9837562 58.39629063 79 62 C78.401875 63.093125 77.80375 64.18625 77.1875 65.3125 C70.56603662 73.44744072 62.34775213 78.1924289 52 80 C47.94537519 80.26103349 43.90535222 80.23372652 39.84375 80.1953125 C38.82958008 80.19329834 37.81541016 80.19128418 36.77050781 80.18920898 C33.01362529 80.17881378 29.25680768 80.15089164 25.5 80.125 C17.085 80.08375 8.67 80.0425 0 80 C0 53.6 0 27.2 0 0 Z " fill="#A1FD11" transform="translate(170,130)"/>
</svg>
